<?xml version="1.0" standalone="no"?>
<!DOCTYPE svg PUBLIC "-//W3C//DTD SVG 20010904//EN"
 "http://www.w3.org/TR/2001/REC-SVG-20010904/DTD/svg10.dtd">
<svg version="1.0" xmlns="http://www.w3.org/2000/svg"
 width="160.000000pt" height="160.000000pt" viewBox="0 0 160.000000 160.000000"
 preserveAspectRatio="xMidYMid meet">
<metadata>
Created by potrace 1.14, written by Peter Selinger 2001-2017
</metadata>
<g transform="translate(0.000000,160.000000) scale(0.100000,-0.100000)"
fill="#000000" stroke="none">
<path d="M990 1552 c-185 -24 -415 -173 -526 -340 -86 -128 -123 -255 -118
-404 2 -57 5 -112 7 -123 63 -322 294 -542 632 -601 43 -7 207 -8 240 0 11 2
22 5 23 5 2 1 -24 31 -57 68 -62 67 -124 168 -157 257 -14 39 -15 54 -6 79 7
18 8 36 3 45 -5 9 -5 25 2 39 8 19 5 30 -18 63 -25 35 -26 43 -14 55 8 8 37
17 64 19 60 7 102 23 109 42 4 10 -12 32 -43 60 -83 77 -146 232 -136 338 9
91 64 218 134 309 49 63 55 80 30 83 -5 1 -10 3 -11 4 -5 4 -132 6 -158 2z"/>
</g>
</svg>
